<svg viewBox="0 0 24 24" xmlns="http://www.w3.org/2000/svg"><path d="M7.9 2.5c4.2 0 7.7 2.9 7.7 6.5s-3.4 6.5-7.7 6.5c-.7 0-1.4-.1-2-.2-1.1.7-2.8 1.4-4.8 1.4-.4 0-.7-.2-.8-.6-.1-.3-.1-.7.2-1 0 0 .8-.9 1.4-2.1C.8 12 .2 10.6.2 9c0-3.6 3.4-6.5 7.7-6.5zM6.3 13.6c.5.2 1.1.2 1.6.2 3.3 0 5.9-2.1 5.9-4.7s-2.7-4.7-5.9-4.7-6 2-6 4.6c0 1.3.7 2.3 1.2 2.8l.9 1-.6 1.1c-.1.2-.3.5-.4.8.7-.2 1.3-.5 1.9-.9l.6-.4zm10.2-6.3c4.1.2 7.3 3 7.3 6.5 0 1.5-.6 3-1.7 4.1.6 1.2 1.4 2.1 1.4 2.1.2.3.3.7.1 1-.1.3-.4.6-.8.6-2 0-3.6-.7-4.8-1.4-.6.1-1.3.2-2 .2-3 0-5.7-1.5-6.9-3.6.6-.1 1.3-.2 1.8-.4 1 1.4 2.9 2.3 5.1 2.3.5 0 1.1-.1 1.6-.2l.7-.1.6.4c.6.4 1.3.7 1.9.9-.2-.2-.3-.5-.4-.8l-.4-1.4.9-.9c.6-.6 1.2-1.5 1.2-2.8 0-2.5-2.3-4.5-5.4-4.7 0-.7 0-1.3-.2-1.8z"/></svg>