<svg viewBox="0 0 18 24" xmlns="http://www.w3.org/2000/svg"><path d="M5.7 19.3c6.8 0 10.5-5.6 10.5-10.5v-.5c.7-.5 1.3-1.2 1.8-1.9-.7.3-1.4.5-2.1.6.8-.5 1.3-1.2 1.6-2-.7.4-1.5.7-2.3.9-.6-.6-1.3-1-2.1-1.1s-1.6 0-2.3.4-1.3 1-1.6 1.7c-.4.7-.5 1.5-.3 2.3-1.5-.1-2.9-.4-4.3-1.1-1.3-.7-2.4-1.6-3.3-2.7-.5.8-.7 1.7-.4 2.7.2.9.7 1.7 1.5 2.2-.6 0-1.2-.2-1.7-.5 0 .9.3 1.7.8 2.3s1.3 1.1 2.1 1.3c-.5.1-1.1.2-1.7.1.2.7.7 1.4 1.3 1.8.6.5 1.4.7 2.1.7C4 17 2.4 17.6.7 17.6c-.3 0-.6 0-.9-.1 1.9 1.2 3.9 1.8 5.9 1.8z"/></svg>