<svg fill="none" height="71" viewBox="0 0 225 71" width="225" xmlns="http://www.w3.org/2000/svg"><g fill="#000"><path d="m27.2 62.6c.6 0 1.4-.4 2.3-1.1 1-.8 1.7-1.8 1.7-2.5 0-.2-.1-.4-.2-.6l-15.6-18.8c-.5-.6-.5-1.5 0-2.2l11.7-14.8c.3-.3.4-.6.4-.9 0-1-2.4-2.7-3.4-2.6-.6 0-.8.4-1 .6l-13.6 16.7c-.3.4-1 .2-1-.4v-34.7c0-.900001-3.1-1.3-4.6-1.3-1.4 0-3.9.399999-3.9 1.3v59.9c0 .9 2.4 1.3 4 1.3 1.4 0 4.6-.4 4.6-1.3 0 0 0-9.6 0-13.1 0-.7.1-2 .5-2.7.2-.4 1.2-1.5 1.2-1.5.3-.4.9-.4 1.2 0l15.2 18.3c0 .3.2.4.5.4z"/><path d="m38.5001 62.4c1.8 0 4.3-.2 4.3-.6v-40.9c0-.9-2.9-1.4-4.3-1.4s-4.3.5-4.3 1.4v40.9c0 .5 2.8.6 4.3.6zm0-47.3c3.9 0 5-2.9 5-5.19999 0-1.9-1.5-4.8-5.1-4.8s-5.3 2.4-5.3 4.8c0 2.49999 1.4 5.19999 5.4 5.19999z"/><path d="m100.9 62.5c1.5 0 4.2-.4 4.2-1.3l-.1-28.8c0-5-1.7-8.3-3.9-10.4-2.1999-2.2-5.2999-3.3-8.7999-3.3-5.2 0-9.6 3.5-11.6 9.2-.2.5-1.1.4-1.1-.2-.3-2.1-1.1-4.8-2.4-6-2.2-2.1-5-3-8.4-3-4.8 0-8.4 2.3-10.6 7-.2.4-1.1.2-1-.3v-4.5c0-.9-2.4-1.3-3.8-1.3s-4.8.4-4.8 1.3v40.9c0 .5 2.9.7 4.7.7s3.8-.3 3.8-.7v-21.8c0-2.5.8-7.4 2.5-10.6 2-3.7 3.8-5.6 7.5-5.6 4.2 0 5.3 3.2 5.3 9.6l.1 27.8c0 .9 2.6 1.3 4.2 1.3 1.4 0 4.4-.4 4.4-1.3l.1-22.4c0-2.7.5-6.4 2-9.4 2.1-3.6 4.1-5.6 7.9-5.6 4.5 0 5.5 3.8 5.5 9.6l.1 27.8c0 .9 2.8 1.3 4.1999 1.3z"/><path d="m146 58.9v-38c0-.9-2.7-1.3-4.2-1.3-1.4 0-4.4.4-4.4 1.3v18.6c0 3.9-.2 9.6-1.8 12.5-1.7 2.9-3.8 5.5-7.6 5.5-4.4 0-8.4-2.8-8.4-9.9l-.2-27.6c0-.9-2.8-1.3-4.3-1.3-1.8 0-4.2.4-4.2 1.3v29.5c0 4.4 2.1 8 4.7 10.1 2.7 2.1 6.7 3.3 10.5 2.9 6.1-.6 8.4-3.6 10.3-7 .2-.3.9-.1.9.3v3.1c0 1.5 8.7 1.3 8.7 0z"/><path d="m166.1 62.6c4.5 0 8.9-2 11.9-7 .3-.4 1.1-.1 1.1.4v5.6c0 2.3 8.5-.7 8.5-3.2v-37.5c0-.9-2.7-1.3-4.1-1.3-1.8 0-4.5.4-4.5 1.3v4.4c0 .5-.7.8-1 .4-1.5-2.3-2.9-4-4.8-5-2.3-1.3-4.7-1.9-7.2-1.9-5.2 0-9.2 2.3-12.2 6.8-2.9 4.3-4.3 9.5-4.3 15.4 0 5.8 1.3 10.7 4 14.7 3 4.6 7.2 6.9 12.6 6.9zm2.4-5.3c-3.9 0-6.5-1.7-8.6-5.2-1.6-2.8-1.9-6.7-1.9-11.3 0-5.3 1-10.8 4.5-14.4 1.8-1.8 3.5-2.4 6-2.4 5.9 0 10.6 5.1 10.6 13.3v6c0 8.1-4.8 14.1-10.6 14z"/><g clip-rule="evenodd" fill-rule="evenodd"><path d="m202.3 42.3s1.7-5.8-1.6-11.5c-2.8-4.4-8.9-5.9-9.6-5.5 1.6 4.1 1 9.9 3.3 12.9 3 4.1 7.9 4.1 7.9 4.1z"/><path d="m201.2 42.1s7.6 4.3 14.1-.1c4.7-3.2 5.1-5.3 9.5-7.9-.2-.9-8.5-3.7-14.2-1.9-7.7 2.2-9.4 9.9-9.4 9.9z"/><path d="m204 42.7c.1-1-4.3-2.2-4.4-1.2-.4 6.7-4.2 16.4-10.5 21.2-7.4 5.6-19.2 3.7-37.9.6-15.8-2.6-25.9 2.5-28.5 4.6-1.6 1.3-.4 2.3 1 1.4 3.5-2.2 13.3-5.6 27.3-2.6 18.2 4 31 6.7 40.7-.3 6.8-4.7 11.7-15 12.3-23.7z"/></g></g></svg>